<?xml version="1.0" encoding="UTF-8"?>
<svg width="24" height="24" version="1.1" viewBox="0 0 24 24" xmlns="http://www.w3.org/2000/svg"><path d="m12 2a10 10 0 0 0-10 10 10 10 0 0 0 10 10 10 10 0 0 0 10-10 10 10 0 0 0-10-10zm0 2a8 8 0 0 1 8 8 8 8 0 0 1-8 8 8 8 0 0 1-8-8 8 8 0 0 1 8-8zm-3 2c-1.1046 0-2 0.89543-2 2h4v1.0957a6 6 0 0 0-4.9902 5.7617 6 6 0 0 0-0.0097656 0.14258 1 1 0 0 0 1 1 1 1 0 0 0 1-1 4 4 0 0 1 3-3.8613v6.8613c0 0.554 0.446 1 1 1s1-0.446 1-1v-6.8613a4 4 0 0 1 3 3.8613 1 1 0 0 0 1 1 1 1 0 0 0 1-1 1 1 0 0 0-0.001953-0.048828 6 6 0 0 0-4.998-5.8574v-1.0938h4c0-1.1046-0.89543-2-2-2h-3-3z"/></svg>
