<?xml version="1.0" encoding="UTF-8" standalone="no"?>
<!-- Created with Inkscape (http://www.inkscape.org/) -->

<svg
   width="48"
   height="48"
   viewBox="0 0 12.7 12.7"
   version="1.1"
   id="svg5"
   xml:space="preserve"
   inkscape:export-filename="flash.png"
   inkscape:export-xdpi="90"
   inkscape:export-ydpi="90"
   inkscape:version="1.2.1 (9c6d41e410, 2022-07-14, custom)"
   sodipodi:docname="flash.svg"
   xmlns:inkscape="http://www.inkscape.org/namespaces/inkscape"
   xmlns:sodipodi="http://sodipodi.sourceforge.net/DTD/sodipodi-0.dtd"
   xmlns="http://www.w3.org/2000/svg"
   xmlns:svg="http://www.w3.org/2000/svg"><sodipodi:namedview
     id="namedview7"
     pagecolor="#000000"
     bordercolor="#666666"
     borderopacity="1.0"
     inkscape:showpageshadow="2"
     inkscape:pageopacity="0"
     inkscape:pagecheckerboard="0"
     inkscape:deskcolor="#d1d1d1"
     inkscape:document-units="mm"
     showgrid="true"
     showguides="true"
     inkscape:zoom="5.6568545"
     inkscape:cx="83.526985"
     inkscape:cy="-9.0156111"
     inkscape:window-width="1920"
     inkscape:window-height="1016"
     inkscape:window-x="0"
     inkscape:window-y="0"
     inkscape:window-maximized="1"
     inkscape:current-layer="layer1"><inkscape:grid
       type="xygrid"
       id="grid1227" /></sodipodi:namedview><defs
     id="defs2" /><g
     inkscape:label="图层 1"
     inkscape:groupmode="layer"
     id="layer1"><path
       id="path919"
       style="fill:#ffffff;fill-opacity:0.5;stroke:none;stroke-width:0.0772317px;stroke-linecap:butt;stroke-linejoin:miter;stroke-opacity:0"
       d="M 8.2629184,1.055e-6 C 8.2194335,1.24495e-4 8.1840545,0.02524841 8.1535571,0.05771723 l -2.9e-4,-1.4992e-4 -5.9077192,6.58421249 c -0.082587,0.087263 -0.1273116,0.2035011 -0.1288365,0.3244267 -0.00362,0.2876491 0.2174003,0.4698531 0.4813353,0.4697796 h 3.7834295 l -2.0712619,5.0808549 5.798e-4,2.94e-4 c -0.00531,0.01484 -0.00806,0.03053 -0.00809,0.04632 -2.04e-5,0.07537 0.060075,0.13648 0.1342286,0.136544 h 1.5e-4 c 0.043484,-1.24e-4 0.078864,-0.02524 0.1093613,-0.05771 l 2.898e-4,1.5e-4 5.9077212,-6.5842115 c 0.08259,-0.087263 0.127308,-0.2035011 0.128834,-0.3244267 0.0036,-0.287649 -0.217399,-0.4698531 -0.481335,-0.4697796 H 6.3185276 L 8.3897865,0.18316615 8.3892067,0.18287223 c 0.00531,-0.0148427 0.00806,-0.030526 0.00809,-0.046327 C 8.3973149,0.0611765 8.3372191,6.5645e-5 8.2630659,9.85e-7 Z" /></g></svg>
